<svg version="1.1" id="Layer_1" xmlns="http://www.w3.org/2000/svg" xmlns:xlink="http://www.w3.org/1999/xlink" x="0px" y="0px"
	 width="100%" viewBox="0 0 1024 1024" enable-background="new 0 0 1024 1024" xml:space="preserve">
<path fill="#FFFFFF" opacity="1.000000" stroke="none" 
	d="
M593.000000,1025.000000 
	C395.333344,1025.000000 198.166672,1025.000000 1.000000,1025.000000 
	C1.000000,683.666687 1.000000,342.333344 1.000000,1.000000 
	C342.333344,1.000000 683.666687,1.000000 1025.000000,1.000000 
	C1025.000000,342.333344 1025.000000,683.666687 1025.000000,1025.000000 
	C881.166687,1025.000000 737.333313,1025.000000 593.000000,1025.000000 
M418.500000,634.000000 
	C348.072845,634.000000 277.645691,634.000000 207.289185,634.000000 
	C207.289185,694.644531 207.289185,754.715271 207.289185,814.713257 
	C419.645752,814.713257 631.713013,814.713257 843.710815,814.713257 
	C843.710815,754.355469 843.710815,694.284729 843.710815,634.000000 
	C702.114563,634.000000 560.807251,634.000000 418.500000,634.000000 
M844.000000,277.500000 
	C844.000000,251.737701 844.000000,225.975403 844.000000,200.285614 
	C631.356506,200.285614 419.289246,200.285614 207.288086,200.285614 
	C207.288086,260.309052 207.288086,320.046417 207.288086,379.714355 
	C419.643555,379.714355 631.710815,379.714355 844.000000,379.714355 
	C844.000000,345.786133 844.000000,312.143066 844.000000,277.500000 
M843.286133,599.996094 
	C843.857422,598.398193 844.925781,596.800964 844.928162,595.202209 
	C845.013977,538.202881 845.000000,481.203461 845.000000,424.204010 
	C845.000000,422.920349 845.000000,421.636719 845.000000,420.219055 
	C632.495972,420.219055 420.425690,420.219055 208.222839,420.219055 
	C208.222839,480.176270 208.222839,539.914307 208.222839,599.999817 
	C419.736725,599.999817 631.027954,599.999817 843.286133,599.996094 
z"/>
<path fill="#000000" opacity="1.000000" stroke="none" 
	d="
M419.000000,634.000000 
	C560.807251,634.000000 702.114563,634.000000 843.710815,634.000000 
	C843.710815,694.284729 843.710815,754.355469 843.710815,814.713257 
	C631.713013,814.713257 419.645752,814.713257 207.289185,814.713257 
	C207.289185,754.715271 207.289185,694.644531 207.289185,634.000000 
	C277.645691,634.000000 348.072845,634.000000 419.000000,634.000000 
M527.500000,805.000061 
	C629.583496,805.000061 731.666931,805.000061 833.609558,805.000061 
	C833.609558,751.260681 833.609558,698.205994 833.609558,645.253540 
	C627.955078,645.253540 422.691223,645.253540 217.302032,645.253540 
	C217.302032,698.561829 217.302032,751.616028 217.302032,805.000061 
	C320.569336,805.000061 423.534668,805.000061 527.500000,805.000061 
z"/>
<path fill="#000000" opacity="1.000000" stroke="none" 
	d="
M844.000000,278.000000 
	C844.000000,312.143066 844.000000,345.786133 844.000000,379.714355 
	C631.710815,379.714355 419.643555,379.714355 207.288086,379.714355 
	C207.288086,320.046417 207.288086,260.309052 207.288086,200.285614 
	C419.289246,200.285614 631.356506,200.285614 844.000000,200.285614 
	C844.000000,225.975403 844.000000,251.737701 844.000000,278.000000 
M754.500000,370.000214 
	C780.921082,370.000214 807.342163,370.000214 833.605408,370.000214 
	C833.605408,316.252380 833.605408,263.197632 833.605408,210.257690 
	C627.946716,210.257690 422.682831,210.257690 217.306274,210.257690 
	C217.306274,263.570343 217.306274,316.624542 217.306274,370.000214 
	C396.241760,370.000214 574.870911,370.000214 754.500000,370.000214 
z"/>
<path fill="#000000" opacity="1.000000" stroke="none" 
	d="
M842.802673,599.997925 
	C631.027954,599.999817 419.736725,599.999817 208.222839,599.999817 
	C208.222839,539.914307 208.222839,480.176270 208.222839,420.219055 
	C420.425690,420.219055 632.495972,420.219055 845.000000,420.219055 
	C845.000000,421.636719 845.000000,422.920349 845.000000,424.204010 
	C845.000000,481.203461 845.013977,538.202881 844.928162,595.202209 
	C844.925781,596.800964 843.857422,598.398193 842.802673,599.997925 
M669.500000,429.999786 
	C519.085205,429.999786 368.670349,429.999786 218.387604,429.999786 
	C218.387604,483.733795 218.387604,536.788452 218.387604,589.749146 
	C424.039429,589.749146 629.303284,589.749146 834.700623,589.749146 
	C834.700623,536.443665 834.700623,483.389526 834.700623,429.999786 
	C779.767883,429.999786 725.133972,429.999786 669.500000,429.999786 
z"/>
<path fill="#EC555B" opacity="1.000000" stroke="none" 
	d="
M527.000000,805.000061 
	C423.534668,805.000061 320.569336,805.000061 217.302032,805.000061 
	C217.302032,751.616028 217.302032,698.561829 217.302032,645.253540 
	C422.691223,645.253540 627.955078,645.253540 833.609558,645.253540 
	C833.609558,698.205994 833.609558,751.260681 833.609558,805.000061 
	C731.666931,805.000061 629.583496,805.000061 527.000000,805.000061 
M794.107422,725.556213 
	C794.162720,722.964294 794.610840,720.308838 794.203979,717.791626 
	C792.611755,707.941345 786.573608,701.119690 778.589111,695.698853 
	C765.540161,686.839844 750.781372,683.243408 735.387024,683.102783 
	C697.742432,682.758728 660.091919,682.988708 622.444214,683.122742 
	C613.633301,683.154114 604.775574,683.247314 596.024963,684.145935 
	C580.149170,685.776245 565.273254,690.452698 553.895447,702.392029 
	C541.259827,715.651367 542.888733,731.153442 556.059692,743.016724 
	C569.698425,755.301453 586.555420,759.661560 604.203369,759.857788 
	C646.176941,760.324463 688.166443,760.340271 730.134827,759.646423 
	C741.594238,759.456909 753.338013,757.228333 764.347778,753.924622 
	C778.257812,749.750427 789.824585,741.686340 794.107422,725.556213 
M261.000305,725.626709 
	C261.332947,728.246338 261.520935,730.893982 262.021240,733.481201 
	C265.861969,753.343079 282.391541,765.411133 300.385284,764.782837 
	C323.164215,763.987488 341.002655,744.419861 337.050293,720.426575 
	C334.762390,706.537598 326.970947,696.709778 314.365295,691.302063 
	C300.913544,685.531494 287.858398,687.564636 276.097412,696.381042 
	C266.680115,703.440552 262.386322,713.345520 261.000305,725.626709 
z"/>
<path fill="#EC555B" opacity="1.000000" stroke="none" 
	d="
M754.000000,370.000214 
	C574.870911,370.000214 396.241760,370.000214 217.306274,370.000214 
	C217.306274,316.624542 217.306274,263.570343 217.306274,210.257690 
	C422.682831,210.257690 627.946716,210.257690 833.605408,210.257690 
	C833.605408,263.197632 833.605408,316.252380 833.605408,370.000214 
	C807.342163,370.000214 780.921082,370.000214 754.000000,370.000214 
M757.070618,321.687073 
	C767.834473,318.418304 778.075500,314.191528 786.007935,305.779633 
	C798.505920,292.526123 797.198059,276.770233 783.698425,264.806580 
	C769.930298,252.605026 753.125732,248.341797 735.489258,248.138641 
	C695.015381,247.672409 654.531006,247.940918 614.052551,248.178146 
	C605.601196,248.227676 597.048279,248.802536 588.733154,250.240234 
	C574.534607,252.695236 561.429688,258.018494 551.995972,269.564301 
	C545.097717,278.007080 542.405701,287.792511 548.342163,297.660034 
	C551.652710,303.162750 556.363159,308.285431 561.526672,312.119720 
	C574.179077,321.515076 589.203735,324.770203 604.597778,324.896637 
	C644.907837,325.227722 685.224792,325.146637 725.534790,324.775360 
	C735.788330,324.680908 746.026245,322.891968 757.070618,321.687073 
M261.000458,290.626801 
	C261.333099,293.246460 261.521088,295.894043 262.021362,298.481293 
	C265.861755,318.342041 282.390930,330.411133 300.385406,329.782745 
	C323.165222,328.987244 341.002502,309.418640 337.050262,285.426575 
	C334.762360,271.537750 326.970947,261.709808 314.365234,256.302246 
	C300.913483,250.531769 287.858459,252.564728 276.097473,261.381104 
	C266.680176,268.440582 262.386505,278.345581 261.000458,290.626801 
z"/>
<path fill="#EC555B" opacity="1.000000" stroke="none" 
	d="
M670.000000,429.999786 
	C725.133972,429.999786 779.767883,429.999786 834.700623,429.999786 
	C834.700623,483.389526 834.700623,536.443665 834.700623,589.749146 
	C629.303284,589.749146 424.039429,589.749146 218.387604,589.749146 
	C218.387604,536.788452 218.387604,483.733795 218.387604,429.999786 
	C368.670349,429.999786 519.085205,429.999786 670.000000,429.999786 
M633.500000,545.002014 
	C664.641418,544.972046 695.783997,545.080139 726.923523,544.821228 
	C735.373718,544.750916 743.922119,544.195312 752.236145,542.763428 
	C766.432983,540.318298 779.530457,534.996582 788.976807,523.470337 
	C795.886841,515.038879 798.581909,505.260223 792.677551,495.389038 
	C789.383057,489.881165 784.677307,484.755219 779.521912,480.914185 
	C766.885498,471.499359 751.862366,468.240448 736.475952,468.106232 
	C697.011292,467.761932 657.541077,468.004547 618.073364,468.126312 
	C611.097107,468.147858 604.082275,468.351105 597.155396,469.110565 
	C581.297729,470.849152 566.366028,475.336060 555.021484,487.308746 
	C544.312439,498.610779 542.900513,510.953613 552.609802,523.149719 
	C563.469666,536.791138 578.929749,542.309448 595.648438,543.868469 
	C607.861389,545.007324 620.211182,544.678345 633.500000,545.002014 
M266.178284,528.180969 
	C273.253448,542.150146 285.018402,549.736450 300.263794,549.776245 
	C322.836273,549.835144 341.424500,530.441101 338.248199,506.003448 
	C336.046600,489.064911 318.470398,470.557251 295.203003,473.731110 
	C271.320923,476.988831 254.425522,503.667603 266.178284,528.180969 
z"/>
<path fill="#080707" opacity="1.000000" stroke="none" 
	d="
M794.047363,725.961670 
	C789.824585,741.686340 778.257812,749.750427 764.347778,753.924622 
	C753.338013,757.228333 741.594238,759.456909 730.134827,759.646423 
	C688.166443,760.340271 646.176941,760.324463 604.203369,759.857788 
	C586.555420,759.661560 569.698425,755.301453 556.059692,743.016724 
	C542.888733,731.153442 541.259827,715.651367 553.895447,702.392029 
	C565.273254,690.452698 580.149170,685.776245 596.024963,684.145935 
	C604.775574,683.247314 613.633301,683.154114 622.444214,683.122742 
	C660.091919,682.988708 697.742432,682.758728 735.387024,683.102783 
	C750.781372,683.243408 765.540161,686.839844 778.589111,695.698853 
	C786.573608,701.119690 792.611755,707.941345 794.203979,717.791626 
	C794.610840,720.308838 794.162720,722.964294 794.047363,725.961670 
M761.584900,695.769897 
	C753.802551,694.174744 746.031860,691.269287 738.236023,691.200378 
	C692.742737,690.797852 647.239990,690.751770 601.748291,691.271545 
	C586.556641,691.445068 572.202698,695.820557 560.557983,706.523071 
	C550.843384,715.451599 550.778870,727.682007 560.417419,736.582886 
	C572.049622,747.324646 586.438049,751.676941 601.623108,751.830872 
	C647.281860,752.293701 692.952942,752.263367 738.610474,751.709045 
	C753.981506,751.522461 768.480103,746.947754 780.078979,735.902039 
	C788.981018,727.424438 789.253357,714.950806 779.935364,706.991333 
	C774.730103,702.545044 768.248535,699.592896 761.584900,695.769897 
z"/>
<path fill="#020101" opacity="1.000000" stroke="none" 
	d="
M261.011230,725.187073 
	C262.386322,713.345520 266.680115,703.440552 276.097412,696.381042 
	C287.858398,687.564636 300.913544,685.531494 314.365295,691.302063 
	C326.970947,696.709778 334.762390,706.537598 337.050293,720.426575 
	C341.002655,744.419861 323.164215,763.987488 300.385284,764.782837 
	C282.391541,765.411133 265.861969,753.343079 262.021240,733.481201 
	C261.520935,730.893982 261.332947,728.246338 261.011230,725.187073 
M321.011475,707.531189 
	C314.994476,700.889282 307.616730,697.628296 298.548309,697.961609 
	C286.725769,698.396179 278.237946,704.147156 273.456055,714.563110 
	C268.682220,724.961365 269.863403,735.375183 277.114288,744.433228 
	C284.523529,753.688965 294.575684,757.087036 305.978119,754.345459 
	C327.200287,749.242981 334.858612,725.906616 321.011475,707.531189 
z"/>
<path fill="#080707" opacity="1.000000" stroke="none" 
	d="
M756.671021,321.784302 
	C746.026245,322.891968 735.788330,324.680908 725.534790,324.775360 
	C685.224792,325.146637 644.907837,325.227722 604.597778,324.896637 
	C589.203735,324.770203 574.179077,321.515076 561.526672,312.119720 
	C556.363159,308.285431 551.652710,303.162750 548.342163,297.660034 
	C542.405701,287.792511 545.097717,278.007080 551.995972,269.564301 
	C561.429688,258.018494 574.534607,252.695236 588.733154,250.240234 
	C597.048279,248.802536 605.601196,248.227676 614.052551,248.178146 
	C654.531006,247.940918 695.015381,247.672409 735.489258,248.138641 
	C753.125732,248.341797 769.930298,252.605026 783.698425,264.806580 
	C797.198059,276.770233 798.505920,292.526123 786.007935,305.779633 
	C778.075500,314.191528 767.834473,318.418304 756.671021,321.784302 
M633.500000,317.122772 
	C667.817749,317.063660 702.139160,317.277100 736.451721,316.824493 
	C752.381287,316.614410 767.387268,312.566376 779.568481,301.350677 
	C789.249939,292.436584 789.187439,280.238708 779.463379,271.304321 
	C767.949463,260.725311 753.724365,256.343658 738.731384,256.184479 
	C692.925598,255.698227 647.106750,255.738892 601.301697,256.296082 
	C586.124329,256.480682 571.787170,260.990723 560.241272,271.811310 
	C550.878479,280.585876 550.987183,292.711731 560.334717,301.545288 
	C568.097046,308.880737 577.458435,313.639832 587.740295,314.795532 
	C602.560120,316.461365 617.570801,316.430084 633.500000,317.122772 
z"/>
<path fill="#010101" opacity="1.000000" stroke="none" 
	d="
M261.011353,290.187103 
	C262.386505,278.345581 266.680176,268.440582 276.097473,261.381104 
	C287.858459,252.564728 300.913483,250.531769 314.365234,256.302246 
	C326.970947,261.709808 334.762360,271.537750 337.050262,285.426575 
	C341.002502,309.418640 323.165222,328.987244 300.385406,329.782745 
	C282.390930,330.411133 265.861755,318.342041 262.021362,298.481293 
	C261.521088,295.894043 261.333099,293.246460 261.011353,290.187103 
M274.126007,277.832611 
	C273.084412,282.600891 271.281677,287.348358 271.150757,292.141510 
	C270.821167,304.205109 277.115143,312.828918 287.729858,317.628021 
	C298.121399,322.326172 308.554657,321.117340 317.573700,313.777802 
	C326.771698,306.292664 329.956879,296.299957 327.319855,284.845520 
	C324.557434,272.846283 316.519135,265.313538 304.637329,263.272064 
	C291.880737,261.080322 281.532593,266.013000 274.126007,277.832611 
z"/>
<path fill="#080707" opacity="1.000000" stroke="none" 
	d="
M633.000000,545.002808 
	C620.211182,544.678345 607.861389,545.007324 595.648438,543.868469 
	C578.929749,542.309448 563.469666,536.791138 552.609802,523.149719 
	C542.900513,510.953613 544.312439,498.610779 555.021484,487.308746 
	C566.366028,475.336060 581.297729,470.849152 597.155396,469.110565 
	C604.082275,468.351105 611.097107,468.147858 618.073364,468.126312 
	C657.541077,468.004547 697.011292,467.761932 736.475952,468.106232 
	C751.862366,468.240448 766.885498,471.499359 779.521912,480.914185 
	C784.677307,484.755219 789.383057,489.881165 792.677551,495.389038 
	C798.581909,505.260223 795.886841,515.038879 788.976807,523.470337 
	C779.530457,534.996582 766.432983,540.318298 752.236145,542.763428 
	C743.922119,544.195312 735.373718,544.750916 726.923523,544.821228 
	C695.783997,545.080139 664.641418,544.972046 633.000000,545.002808 
M659.500000,475.923340 
	C641.008728,475.967834 622.505981,475.625092 604.029785,476.175171 
	C588.284851,476.644012 573.444153,480.552307 561.414001,491.661835 
	C551.754028,500.582520 551.821472,512.778564 561.552368,521.710022 
	C573.070801,532.282166 587.296631,536.658081 602.290283,536.816528 
	C648.096069,537.300537 693.915039,537.262207 739.719971,536.702759 
	C754.896851,536.517395 769.233398,532.000061 780.774597,521.174683 
	C790.133240,512.396362 790.094360,500.189880 780.625549,491.466156 
	C768.576233,480.365143 753.701782,476.386261 737.961426,476.078461 
	C712.149780,475.573792 686.321350,475.929535 659.500000,475.923340 
z"/>
<path fill="#010101" opacity="1.000000" stroke="none" 
	d="
M266.051880,527.820679 
	C254.425522,503.667603 271.320923,476.988831 295.203003,473.731110 
	C318.470398,470.557251 336.046600,489.064911 338.248199,506.003448 
	C341.424500,530.441101 322.836273,549.835144 300.263794,549.776245 
	C285.018402,549.736450 273.253448,542.150146 266.051880,527.820679 
M311.363098,484.910736 
	C307.500366,484.274231 303.641815,483.127747 299.774078,483.095886 
	C287.702454,482.996399 279.110291,489.185059 274.334442,499.802155 
	C269.746857,510.000641 270.862823,520.324036 277.951935,529.249268 
	C285.445312,538.683411 295.506104,541.812317 307.233337,539.350525 
	C318.421387,537.001953 327.551788,527.236206 328.925323,515.601746 
	C330.534698,501.969788 324.773041,491.884796 311.363098,484.910736 
z"/>
<path fill="#FEFEFE" opacity="1.000000" stroke="none" 
	d="
M761.963501,695.868652 
	C768.248535,699.592896 774.730103,702.545044 779.935364,706.991333 
	C789.253357,714.950806 788.981018,727.424438 780.078979,735.902039 
	C768.480103,746.947754 753.981506,751.522461 738.610474,751.709045 
	C692.952942,752.263367 647.281860,752.293701 601.623108,751.830872 
	C586.438049,751.676941 572.049622,747.324646 560.417419,736.582886 
	C550.778870,727.682007 550.843384,715.451599 560.557983,706.523071 
	C572.202698,695.820557 586.556641,691.445068 601.748291,691.271545 
	C647.239990,690.751770 692.742737,690.797852 738.236023,691.200378 
	C746.031860,691.269287 753.802551,694.174744 761.963501,695.868652 
z"/>
<path fill="#EB1D25" opacity="1.000000" stroke="none" 
	d="
M321.265198,707.788696 
	C334.858612,725.906616 327.200287,749.242981 305.978119,754.345459 
	C294.575684,757.087036 284.523529,753.688965 277.114288,744.433228 
	C269.863403,735.375183 268.682220,724.961365 273.456055,714.563110 
	C278.237946,704.147156 286.725769,698.396179 298.548309,697.961609 
	C307.616730,697.628296 314.994476,700.889282 321.265198,707.788696 
z"/>
<path fill="#FEFEFE" opacity="1.000000" stroke="none" 
	d="
M633.000000,317.122925 
	C617.570801,316.430084 602.560120,316.461365 587.740295,314.795532 
	C577.458435,313.639832 568.097046,308.880737 560.334717,301.545288 
	C550.987183,292.711731 550.878479,280.585876 560.241272,271.811310 
	C571.787170,260.990723 586.124329,256.480682 601.301697,256.296082 
	C647.106750,255.738892 692.925598,255.698227 738.731384,256.184479 
	C753.724365,256.343658 767.949463,260.725311 779.463379,271.304321 
	C789.187439,280.238708 789.249939,292.436584 779.568481,301.350677 
	C767.387268,312.566376 752.381287,316.614410 736.451721,316.824493 
	C702.139160,317.277100 667.817749,317.063660 633.000000,317.122925 
z"/>
<path fill="#4AED78" opacity="1.000000" stroke="none" 
	d="
M274.311646,277.506470 
	C281.532593,266.013000 291.880737,261.080322 304.637329,263.272064 
	C316.519135,265.313538 324.557434,272.846283 327.319855,284.845520 
	C329.956879,296.299957 326.771698,306.292664 317.573700,313.777802 
	C308.554657,321.117340 298.121399,322.326172 287.729858,317.628021 
	C277.115143,312.828918 270.821167,304.205109 271.150757,292.141510 
	C271.281677,287.348358 273.084412,282.600891 274.311646,277.506470 
z"/>
<path fill="#FEFEFE" opacity="1.000000" stroke="none" 
	d="
M660.000000,475.922852 
	C686.321350,475.929535 712.149780,475.573792 737.961426,476.078461 
	C753.701782,476.386261 768.576233,480.365143 780.625549,491.466156 
	C790.094360,500.189880 790.133240,512.396362 780.774597,521.174683 
	C769.233398,532.000061 754.896851,536.517395 739.719971,536.702759 
	C693.915039,537.262207 648.096069,537.300537 602.290283,536.816528 
	C587.296631,536.658081 573.070801,532.282166 561.552368,521.710022 
	C551.821472,512.778564 551.754028,500.582520 561.414001,491.661835 
	C573.444153,480.552307 588.284851,476.644012 604.029785,476.175171 
	C622.505981,475.625092 641.008728,475.967834 660.000000,475.922852 
z"/>
<path fill="#4AED78" opacity="1.000000" stroke="none" 
	d="
M311.741089,485.013000 
	C324.773041,491.884796 330.534698,501.969788 328.925323,515.601746 
	C327.551788,527.236206 318.421387,537.001953 307.233337,539.350525 
	C295.506104,541.812317 285.445312,538.683411 277.951935,529.249268 
	C270.862823,520.324036 269.746857,510.000641 274.334442,499.802155 
	C279.110291,489.185059 287.702454,482.996399 299.774078,483.095886 
	C303.641815,483.127747 307.500366,484.274231 311.741089,485.013000 
z"/>
</svg>